# Moebius strip: one boundary loop, not orientable.
# Generated by scripts/make_samples.py, synthetic data.
v 0.650000 0.000000 -0.000000
v 0.766667 0.000000 -0.000000
v 0.883333 0.000000 -0.000000
v 1.000000 0.000000 0.000000
v 1.116667 0.000000 0.000000
v 1.233333 0.000000 0.000000
v 1.350000 0.000000 0.000000
v 0.646916 0.067994 -0.018318
v 0.762785 0.080172 -0.012212
v 0.878653 0.092350 -0.006106
v 0.994522 0.104528 0.000000
v 1.110390 0.116707 0.006106
v 1.226259 0.128885 0.012212
v 1.342128 0.141063 0.018318
v 0.637671 0.135541 -0.036585
v 0.751163 0.159665 -0.024390
v 0.864656 0.183788 -0.012195
v 0.978148 0.207912 0.000000
v 1.091640 0.232035 0.012195
v 1.205132 0.256159 0.024390
v 1.318624 0.280282 0.036585
v 0.622285 0.202193 -0.054752
v 0.731875 0.237801 -0.036501
v 0.841466 0.273409 -0.018251
v 0.951057 0.309017 0.000000
v 1.060647 0.344625 0.018251
v 1.170238 0.380233 0.036501
v 1.279828 0.415841 0.054752
v 0.600792 0.267490 -0.072769
v 0.705043 0.313905 -0.048513
v 0.809294 0.360321 -0.024256
v 0.913545 0.406737 0.000000
v 1.017797 0.453152 0.024256
v 1.122048 0.499568 0.048513
v 1.226299 0.545984 0.072769
v 0.573245 0.330963 -0.090587
v 0.670838 0.387309 -0.060391
v 0.768432 0.443654 -0.030196
v 0.866025 0.500000 0.000000
v 0.963619 0.556346 0.030196
v 1.061213 0.612691 0.060391
v 1.158806 0.669037 0.090587
v 0.539720 0.392129 -0.108156
v 0.629485 0.457348 -0.072104
v 0.719251 0.522567 -0.036052
v 0.809017 0.587785 0.000000
v 0.898783 0.653004 0.036052
v 0.988549 0.718223 0.072104
v 1.078314 0.783441 0.108156
v 0.500320 0.450490 -0.125429
v 0.581262 0.523370 -0.083619
v 0.662203 0.596250 -0.041810
v 0.743145 0.669131 0.000000
v 0.824086 0.742011 0.041810
v 0.905028 0.814891 0.083619
v 0.985970 0.887771 0.125429
v 0.455182 0.505531 -0.142358
v 0.526498 0.584736 -0.094905
v 0.597814 0.663940 -0.047453
v 0.669131 0.743145 0.000000
v 0.740447 0.822349 0.047453
v 0.811763 0.901554 0.094905
v 0.883079 0.980759 0.142358
v 0.404483 0.556723 -0.158897
v 0.465584 0.640821 -0.105931
v 0.526685 0.724919 -0.052966
v 0.587785 0.809017 0.000000
v 0.648886 0.893115 0.052966
v 0.709987 0.977213 0.105931
v 0.771087 1.061311 0.158897
v 0.348446 0.603525 -0.175000
v 0.398964 0.691025 -0.116667
v 0.449482 0.778525 -0.058333
v 0.500000 0.866025 0.000000
v 0.550518 0.953525 0.058333
v 0.601036 1.041025 0.116667
v 0.651554 1.128525 0.175000
v 0.287345 0.645388 -0.190624
v 0.327142 0.734774 -0.127082
v 0.366940 0.824160 -0.063541
v 0.406737 0.913545 0.000000
v 0.446534 1.002931 0.063541
v 0.486331 1.092317 0.127082
v 0.526128 1.181703 0.190624
v 0.221517 0.681759 -0.205725
v 0.250684 0.771525 -0.137150
v 0.279850 0.861291 -0.068575
v 0.309017 0.951057 0.000000
v 0.338184 1.040822 0.068575
v 0.367350 1.130588 0.137150
v 0.396517 1.220354 0.205725
v 0.151359 0.712090 -0.220262
v 0.170210 0.800776 -0.146841
v 0.189061 0.889462 -0.073421
v 0.207912 0.978148 0.000000
v 0.226762 1.066833 0.073421
v 0.245613 1.155519 0.146841
v 0.264464 1.244205 0.220262
v 0.077341 0.735846 -0.234196
v 0.086403 0.822071 -0.156130
v 0.095466 0.908297 -0.078065
v 0.104528 0.994522 0.000000
v 0.113591 1.080747 0.078065
v 0.122654 1.166972 0.156130
v 0.131716 1.253198 0.234196
v 0.000000 0.752513 -0.247487
v 0.000000 0.835008 -0.164992
v 0.000000 0.917504 -0.082496
v 0.000000 1.000000 0.000000
v 0.000000 1.082496 0.082496
v 0.000000 1.164992 0.164992
v 0.000000 1.247487 0.247487
v -0.080048 0.761609 -0.260101
v -0.088208 0.839247 -0.173400
v -0.096368 0.916884 -0.086700
v -0.104528 0.994522 0.000000
v -0.112689 1.072159 0.086700
v -0.120849 1.149797 0.173400
v -0.129009 1.227435 0.260101
v -0.162117 0.762699 -0.272001
v -0.177382 0.834515 -0.181334
v -0.192647 0.906331 -0.090667
v -0.207912 0.978148 0.000000
v -0.223177 1.049964 0.090667
v -0.238442 1.121780 0.181334
v -0.253707 1.193596 0.272001
v -0.245445 0.755401 -0.283156
v -0.266635 0.820619 -0.188771
v -0.287826 0.885838 -0.094385
v -0.309017 0.951057 0.000000
v -0.330208 1.016275 0.094385
v -0.351399 1.081494 0.188771
v -0.372589 1.146712 0.283156
v -0.329203 0.739402 -0.293535
v -0.355048 0.797450 -0.195690
v -0.380892 0.855498 -0.097845
v -0.406737 0.913545 0.000000
v -0.432581 0.971593 0.097845
v -0.458426 1.029641 0.195690
v -0.484270 1.087689 0.293535
v -0.412500 0.714471 -0.303109
v -0.441667 0.764989 -0.202073
v -0.470833 0.815507 -0.101036
v -0.500000 0.866025 0.000000
v -0.529167 0.916544 0.101036
v -0.558333 0.967062 0.202073
v -0.587500 1.017580 0.303109
v -0.494388 0.680467 -0.311852
v -0.525521 0.723317 -0.207902
v -0.556653 0.766167 -0.103951
v -0.587785 0.809017 0.000000
v -0.618918 0.851867 0.103951
v -0.650050 0.894717 0.207902
v -0.681182 0.937567 0.311852
v -0.573875 0.637352 -0.319741
v -0.605627 0.672617 -0.213161
v -0.637379 0.707881 -0.106580
v -0.669131 0.743145 0.000000
v -0.700883 0.778409 0.106580
v -0.732635 0.813673 0.213161
v -0.764387 0.848937 0.319741
v -0.649933 0.585202 -0.326753
v -0.681004 0.613178 -0.217835
v -0.712074 0.641155 -0.108918
v -0.743145 0.669131 0.000000
v -0.774215 0.697107 0.108918
v -0.805286 0.725083 0.217835
v -0.836357 0.753059 0.326753
v -0.721517 0.524213 -0.332870
v -0.750684 0.545404 -0.221913
v -0.779850 0.566594 -0.110957
v -0.809017 0.587785 0.000000
v -0.838184 0.608976 0.110957
v -0.867350 0.630167 0.221913
v -0.896517 0.651358 0.332870
v -0.787575 0.454707 -0.338074
v -0.813725 0.469804 -0.225383
v -0.839875 0.484902 -0.112691
v -0.866025 0.500000 0.000000
v -0.892176 0.515098 0.112691
v -0.918326 0.530196 0.225383
v -0.944476 0.545293 0.338074
v -0.847068 0.377139 -0.342352
v -0.869227 0.387005 -0.228234
v -0.891386 0.396871 -0.114117
v -0.913545 0.406737 0.000000
v -0.935705 0.416603 0.114117
v -0.957864 0.426469 0.228234
v -0.980023 0.436334 0.342352
v -0.898984 0.292098 -0.345691
v -0.916342 0.297737 -0.230461
v -0.933699 0.303377 -0.115230
v -0.951057 0.309017 0.000000
v -0.968414 0.314657 0.115230
v -0.985771 0.320297 0.230461
v -1.003129 0.325936 0.345691
v -0.942362 0.200305 -0.348083
v -0.954291 0.202841 -0.232055
v -0.966219 0.205376 -0.116028
v -0.978148 0.207912 0.000000
v -0.990076 0.210447 0.116028
v -1.002005 0.212983 0.232055
v -1.013933 0.215518 0.348083
v -0.976305 0.102614 -0.349520
v -0.982377 0.103252 -0.233014
v -0.988449 0.103890 -0.116507
v -0.994522 0.104528 0.000000
v -1.000594 0.105167 0.116507
v -1.006667 0.105805 0.233014
v -1.012739 0.106443 0.349520
v -1.000000 0.000000 -0.350000
v -1.000000 0.000000 -0.233333
v -1.000000 0.000000 -0.116667
v -1.000000 0.000000 0.000000
v -1.000000 0.000000 0.116667
v -1.000000 0.000000 0.233333
v -1.000000 0.000000 0.350000
v -1.012739 -0.106443 -0.349520
v -1.006667 -0.105805 -0.233014
v -1.000594 -0.105167 -0.116507
v -0.994522 -0.104528 0.000000
v -0.988449 -0.103890 0.116507
v -0.982377 -0.103252 0.233014
v -0.976305 -0.102614 0.349520
v -1.013933 -0.215518 -0.348083
v -1.002005 -0.212983 -0.232055
v -0.990076 -0.210447 -0.116028
v -0.978148 -0.207912 0.000000
v -0.966219 -0.205376 0.116028
v -0.954291 -0.202841 0.232055
v -0.942362 -0.200305 0.348083
v -1.003129 -0.325936 -0.345691
v -0.985771 -0.320297 -0.230461
v -0.968414 -0.314657 -0.115230
v -0.951057 -0.309017 0.000000
v -0.933699 -0.303377 0.115230
v -0.916342 -0.297737 0.230461
v -0.898984 -0.292098 0.345691
v -0.980023 -0.436334 -0.342352
v -0.957864 -0.426469 -0.228234
v -0.935705 -0.416603 -0.114117
v -0.913545 -0.406737 0.000000
v -0.891386 -0.396871 0.114117
v -0.869227 -0.387005 0.228234
v -0.847068 -0.377139 0.342352
v -0.944476 -0.545293 -0.338074
v -0.918326 -0.530196 -0.225383
v -0.892176 -0.515098 -0.112691
v -0.866025 -0.500000 0.000000
v -0.839875 -0.484902 0.112691
v -0.813725 -0.469804 0.225383
v -0.787575 -0.454707 0.338074
v -0.896517 -0.651358 -0.332870
v -0.867350 -0.630167 -0.221913
v -0.838184 -0.608976 -0.110957
v -0.809017 -0.587785 0.000000
v -0.779850 -0.566594 0.110957
v -0.750684 -0.545404 0.221913
v -0.721517 -0.524213 0.332870
v -0.836357 -0.753059 -0.326753
v -0.805286 -0.725083 -0.217835
v -0.774215 -0.697107 -0.108918
v -0.743145 -0.669131 0.000000
v -0.712074 -0.641155 0.108918
v -0.681004 -0.613178 0.217835
v -0.649933 -0.585202 0.326753
v -0.764387 -0.848937 -0.319741
v -0.732635 -0.813673 -0.213161
v -0.700883 -0.778409 -0.106580
v -0.669131 -0.743145 0.000000
v -0.637379 -0.707881 0.106580
v -0.605627 -0.672617 0.213161
v -0.573875 -0.637352 0.319741
v -0.681182 -0.937567 -0.311852
v -0.650050 -0.894717 -0.207902
v -0.618918 -0.851867 -0.103951
v -0.587785 -0.809017 0.000000
v -0.556653 -0.766167 0.103951
v -0.525521 -0.723317 0.207902
v -0.494388 -0.680467 0.311852
v -0.587500 -1.017580 -0.303109
v -0.558333 -0.967062 -0.202073
v -0.529167 -0.916544 -0.101036
v -0.500000 -0.866025 0.000000
v -0.470833 -0.815507 0.101036
v -0.441667 -0.764989 0.202073
v -0.412500 -0.714471 0.303109
v -0.484270 -1.087689 -0.293535
v -0.458426 -1.029641 -0.195690
v -0.432581 -0.971593 -0.097845
v -0.406737 -0.913545 0.000000
v -0.380892 -0.855498 0.097845
v -0.355048 -0.797450 0.195690
v -0.329203 -0.739402 0.293535
v -0.372589 -1.146712 -0.283156
v -0.351399 -1.081494 -0.188771
v -0.330208 -1.016275 -0.094385
v -0.309017 -0.951057 0.000000
v -0.287826 -0.885838 0.094385
v -0.266635 -0.820619 0.188771
v -0.245445 -0.755401 0.283156
v -0.253707 -1.193596 -0.272001
v -0.238442 -1.121780 -0.181334
v -0.223177 -1.049964 -0.090667
v -0.207912 -0.978148 0.000000
v -0.192647 -0.906331 0.090667
v -0.177382 -0.834515 0.181334
v -0.162117 -0.762699 0.272001
v -0.129009 -1.227435 -0.260101
v -0.120849 -1.149797 -0.173400
v -0.112689 -1.072159 -0.086700
v -0.104528 -0.994522 0.000000
v -0.096368 -0.916884 0.086700
v -0.088208 -0.839247 0.173400
v -0.080048 -0.761609 0.260101
v -0.000000 -1.247487 -0.247487
v -0.000000 -1.164992 -0.164992
v -0.000000 -1.082496 -0.082496
v -0.000000 -1.000000 0.000000
v -0.000000 -0.917504 0.082496
v -0.000000 -0.835008 0.164992
v -0.000000 -0.752513 0.247487
v 0.131716 -1.253198 -0.234196
v 0.122654 -1.166972 -0.156130
v 0.113591 -1.080747 -0.078065
v 0.104528 -0.994522 0.000000
v 0.095466 -0.908297 0.078065
v 0.086403 -0.822071 0.156130
v 0.077341 -0.735846 0.234196
v 0.264464 -1.244205 -0.220262
v 0.245613 -1.155519 -0.146841
v 0.226762 -1.066833 -0.073421
v 0.207912 -0.978148 0.000000
v 0.189061 -0.889462 0.073421
v 0.170210 -0.800776 0.146841
v 0.151359 -0.712090 0.220262
v 0.396517 -1.220354 -0.205725
v 0.367350 -1.130588 -0.137150
v 0.338184 -1.040822 -0.068575
v 0.309017 -0.951057 0.000000
v 0.279850 -0.861291 0.068575
v 0.250684 -0.771525 0.137150
v 0.221517 -0.681759 0.205725
v 0.526128 -1.181703 -0.190624
v 0.486331 -1.092317 -0.127082
v 0.446534 -1.002931 -0.063541
v 0.406737 -0.913545 0.000000
v 0.366940 -0.824160 0.063541
v 0.327142 -0.734774 0.127082
v 0.287345 -0.645388 0.190624
v 0.651554 -1.128525 -0.175000
v 0.601036 -1.041025 -0.116667
v 0.550518 -0.953525 -0.058333
v 0.500000 -0.866025 0.000000
v 0.449482 -0.778525 0.058333
v 0.398964 -0.691025 0.116667
v 0.348446 -0.603525 0.175000
v 0.771087 -1.061311 -0.158897
v 0.709987 -0.977213 -0.105931
v 0.648886 -0.893115 -0.052966
v 0.587785 -0.809017 0.000000
v 0.526685 -0.724919 0.052966
v 0.465584 -0.640821 0.105931
v 0.404483 -0.556723 0.158897
v 0.883079 -0.980759 -0.142358
v 0.811763 -0.901554 -0.094905
v 0.740447 -0.822349 -0.047453
v 0.669131 -0.743145 0.000000
v 0.597814 -0.663940 0.047453
v 0.526498 -0.584736 0.094905
v 0.455182 -0.505531 0.142358
v 0.985970 -0.887771 -0.125429
v 0.905028 -0.814891 -0.083619
v 0.824086 -0.742011 -0.041810
v 0.743145 -0.669131 0.000000
v 0.662203 -0.596250 0.041810
v 0.581262 -0.523370 0.083619
v 0.500320 -0.450490 0.125429
v 1.078314 -0.783441 -0.108156
v 0.988549 -0.718223 -0.072104
v 0.898783 -0.653004 -0.036052
v 0.809017 -0.587785 0.000000
v 0.719251 -0.522567 0.036052
v 0.629485 -0.457348 0.072104
v 0.539720 -0.392129 0.108156
v 1.158806 -0.669037 -0.090587
v 1.061213 -0.612691 -0.060391
v 0.963619 -0.556346 -0.030196
v 0.866025 -0.500000 0.000000
v 0.768432 -0.443654 0.030196
v 0.670838 -0.387309 0.060391
v 0.573245 -0.330963 0.090587
v 1.226299 -0.545984 -0.072769
v 1.122048 -0.499568 -0.048513
v 1.017797 -0.453152 -0.024256
v 0.913545 -0.406737 0.000000
v 0.809294 -0.360321 0.024256
v 0.705043 -0.313905 0.048513
v 0.600792 -0.267490 0.072769
v 1.279828 -0.415841 -0.054752
v 1.170238 -0.380233 -0.036501
v 1.060647 -0.344625 -0.018251
v 0.951057 -0.309017 0.000000
v 0.841466 -0.273409 0.018251
v 0.731875 -0.237801 0.036501
v 0.622285 -0.202193 0.054752
v 1.318624 -0.280282 -0.036585
v 1.205132 -0.256159 -0.024390
v 1.091640 -0.232035 -0.012195
v 0.978148 -0.207912 0.000000
v 0.864656 -0.183788 0.012195
v 0.751163 -0.159665 0.024390
v 0.637671 -0.135541 0.036585
v 1.342128 -0.141063 -0.018318
v 1.226259 -0.128885 -0.012212
v 1.110390 -0.116707 -0.006106
v 0.994522 -0.104528 0.000000
v 0.878653 -0.092350 0.006106
v 0.762785 -0.080172 0.012212
v 0.646916 -0.067994 0.018318
f 1 8 9 2
f 2 9 10 3
f 3 10 11 4
f 4 11 12 5
f 5 12 13 6
f 6 13 14 7
f 8 15 16 9
f 9 16 17 10
f 10 17 18 11
f 11 18 19 12
f 12 19 20 13
f 13 20 21 14
f 15 22 23 16
f 16 23 24 17
f 17 24 25 18
f 18 25 26 19
f 19 26 27 20
f 20 27 28 21
f 22 29 30 23
f 23 30 31 24
f 24 31 32 25
f 25 32 33 26
f 26 33 34 27
f 27 34 35 28
f 29 36 37 30
f 30 37 38 31
f 31 38 39 32
f 32 39 40 33
f 33 40 41 34
f 34 41 42 35
f 36 43 44 37
f 37 44 45 38
f 38 45 46 39
f 39 46 47 40
f 40 47 48 41
f 41 48 49 42
f 43 50 51 44
f 44 51 52 45
f 45 52 53 46
f 46 53 54 47
f 47 54 55 48
f 48 55 56 49
f 50 57 58 51
f 51 58 59 52
f 52 59 60 53
f 53 60 61 54
f 54 61 62 55
f 55 62 63 56
f 57 64 65 58
f 58 65 66 59
f 59 66 67 60
f 60 67 68 61
f 61 68 69 62
f 62 69 70 63
f 64 71 72 65
f 65 72 73 66
f 66 73 74 67
f 67 74 75 68
f 68 75 76 69
f 69 76 77 70
f 71 78 79 72
f 72 79 80 73
f 73 80 81 74
f 74 81 82 75
f 75 82 83 76
f 76 83 84 77
f 78 85 86 79
f 79 86 87 80
f 80 87 88 81
f 81 88 89 82
f 82 89 90 83
f 83 90 91 84
f 85 92 93 86
f 86 93 94 87
f 87 94 95 88
f 88 95 96 89
f 89 96 97 90
f 90 97 98 91
f 92 99 100 93
f 93 100 101 94
f 94 101 102 95
f 95 102 103 96
f 96 103 104 97
f 97 104 105 98
f 99 106 107 100
f 100 107 108 101
f 101 108 109 102
f 102 109 110 103
f 103 110 111 104
f 104 111 112 105
f 106 113 114 107
f 107 114 115 108
f 108 115 116 109
f 109 116 117 110
f 110 117 118 111
f 111 118 119 112
f 113 120 121 114
f 114 121 122 115
f 115 122 123 116
f 116 123 124 117
f 117 124 125 118
f 118 125 126 119
f 120 127 128 121
f 121 128 129 122
f 122 129 130 123
f 123 130 131 124
f 124 131 132 125
f 125 132 133 126
f 127 134 135 128
f 128 135 136 129
f 129 136 137 130
f 130 137 138 131
f 131 138 139 132
f 132 139 140 133
f 134 141 142 135
f 135 142 143 136
f 136 143 144 137
f 137 144 145 138
f 138 145 146 139
f 139 146 147 140
f 141 148 149 142
f 142 149 150 143
f 143 150 151 144
f 144 151 152 145
f 145 152 153 146
f 146 153 154 147
f 148 155 156 149
f 149 156 157 150
f 150 157 158 151
f 151 158 159 152
f 152 159 160 153
f 153 160 161 154
f 155 162 163 156
f 156 163 164 157
f 157 164 165 158
f 158 165 166 159
f 159 166 167 160
f 160 167 168 161
f 162 169 170 163
f 163 170 171 164
f 164 171 172 165
f 165 172 173 166
f 166 173 174 167
f 167 174 175 168
f 169 176 177 170
f 170 177 178 171
f 171 178 179 172
f 172 179 180 173
f 173 180 181 174
f 174 181 182 175
f 176 183 184 177
f 177 184 185 178
f 178 185 186 179
f 179 186 187 180
f 180 187 188 181
f 181 188 189 182
f 183 190 191 184
f 184 191 192 185
f 185 192 193 186
f 186 193 194 187
f 187 194 195 188
f 188 195 196 189
f 190 197 198 191
f 191 198 199 192
f 192 199 200 193
f 193 200 201 194
f 194 201 202 195
f 195 202 203 196
f 197 204 205 198
f 198 205 206 199
f 199 206 207 200
f 200 207 208 201
f 201 208 209 202
f 202 209 210 203
f 204 211 212 205
f 205 212 213 206
f 206 213 214 207
f 207 214 215 208
f 208 215 216 209
f 209 216 217 210
f 211 218 219 212
f 212 219 220 213
f 213 220 221 214
f 214 221 222 215
f 215 222 223 216
f 216 223 224 217
f 218 225 226 219
f 219 226 227 220
f 220 227 228 221
f 221 228 229 222
f 222 229 230 223
f 223 230 231 224
f 225 232 233 226
f 226 233 234 227
f 227 234 235 228
f 228 235 236 229
f 229 236 237 230
f 230 237 238 231
f 232 239 240 233
f 233 240 241 234
f 234 241 242 235
f 235 242 243 236
f 236 243 244 237
f 237 244 245 238
f 239 246 247 240
f 240 247 248 241
f 241 248 249 242
f 242 249 250 243
f 243 250 251 244
f 244 251 252 245
f 246 253 254 247
f 247 254 255 248
f 248 255 256 249
f 249 256 257 250
f 250 257 258 251
f 251 258 259 252
f 253 260 261 254
f 254 261 262 255
f 255 262 263 256
f 256 263 264 257
f 257 264 265 258
f 258 265 266 259
f 260 267 268 261
f 261 268 269 262
f 262 269 270 263
f 263 270 271 264
f 264 271 272 265
f 265 272 273 266
f 267 274 275 268
f 268 275 276 269
f 269 276 277 270
f 270 277 278 271
f 271 278 279 272
f 272 279 280 273
f 274 281 282 275
f 275 282 283 276
f 276 283 284 277
f 277 284 285 278
f 278 285 286 279
f 279 286 287 280
f 281 288 289 282
f 282 289 290 283
f 283 290 291 284
f 284 291 292 285
f 285 292 293 286
f 286 293 294 287
f 288 295 296 289
f 289 296 297 290
f 290 297 298 291
f 291 298 299 292
f 292 299 300 293
f 293 300 301 294
f 295 302 303 296
f 296 303 304 297
f 297 304 305 298
f 298 305 306 299
f 299 306 307 300
f 300 307 308 301
f 302 309 310 303
f 303 310 311 304
f 304 311 312 305
f 305 312 313 306
f 306 313 314 307
f 307 314 315 308
f 309 316 317 310
f 310 317 318 311
f 311 318 319 312
f 312 319 320 313
f 313 320 321 314
f 314 321 322 315
f 316 323 324 317
f 317 324 325 318
f 318 325 326 319
f 319 326 327 320
f 320 327 328 321
f 321 328 329 322
f 323 330 331 324
f 324 331 332 325
f 325 332 333 326
f 326 333 334 327
f 327 334 335 328
f 328 335 336 329
f 330 337 338 331
f 331 338 339 332
f 332 339 340 333
f 333 340 341 334
f 334 341 342 335
f 335 342 343 336
f 337 344 345 338
f 338 345 346 339
f 339 346 347 340
f 340 347 348 341
f 341 348 349 342
f 342 349 350 343
f 344 351 352 345
f 345 352 353 346
f 346 353 354 347
f 347 354 355 348
f 348 355 356 349
f 349 356 357 350
f 351 358 359 352
f 352 359 360 353
f 353 360 361 354
f 354 361 362 355
f 355 362 363 356
f 356 363 364 357
f 358 365 366 359
f 359 366 367 360
f 360 367 368 361
f 361 368 369 362
f 362 369 370 363
f 363 370 371 364
f 365 372 373 366
f 366 373 374 367
f 367 374 375 368
f 368 375 376 369
f 369 376 377 370
f 370 377 378 371
f 372 379 380 373
f 373 380 381 374
f 374 381 382 375
f 375 382 383 376
f 376 383 384 377
f 377 384 385 378
f 379 386 387 380
f 380 387 388 381
f 381 388 389 382
f 382 389 390 383
f 383 390 391 384
f 384 391 392 385
f 386 393 394 387
f 387 394 395 388
f 388 395 396 389
f 389 396 397 390
f 390 397 398 391
f 391 398 399 392
f 393 400 401 394
f 394 401 402 395
f 395 402 403 396
f 396 403 404 397
f 397 404 405 398
f 398 405 406 399
f 400 407 408 401
f 401 408 409 402
f 402 409 410 403
f 403 410 411 404
f 404 411 412 405
f 405 412 413 406
f 407 414 415 408
f 408 415 416 409
f 409 416 417 410
f 410 417 418 411
f 411 418 419 412
f 412 419 420 413
f 414 7 6 415
f 415 6 5 416
f 416 5 4 417
f 417 4 3 418
f 418 3 2 419
f 419 2 1 420
